<svg xmlns="http://www.w3.org/2000/svg" viewBox="0 0 256 256">
	<style>
		.nsw-red {
			fill: #d7153a;
			stroke-width: 0;
		}

		.nsw-blue {
			fill: #002664;
			stroke-width: 0;
		}

		@media (prefers-color-scheme: dark) {

			.nsw-red,
			.nsw-blue {
				fill: #FFFFFF;
				stroke-width: 0;
			}
		}
	</style>
	<path class="nsw-blue"
		d="M88.9,235.9l10-11.8c6.2,5.7,14.3,9,22.7,9.2,6.8,0,11-2.7,11-7.2v-.2c0-4.3-2.6-6.4-15.3-9.7-15.3-3.7-25.2-8.2-25.2-23.3v-.2c0-13.9,11.2-23,26.7-23,10.2-.2,20.2,3.2,28.3,9.6l-8.7,12.6c-5.7-4.4-12.6-7-19.8-7.5-6.4,0-9.8,2.9-9.8,6.6v.2c0,5,3.2,6.6,16.4,10,15.4,4.1,24.1,9.7,24.1,22.8v.2c0,15.2-11.5,23.6-27.9,23.6s-23.4-4.2-32.4-12.1h0v.2h0ZM67.5,219.3l-40.8-47.9H9.5v75.2h16.8v-48l40.6,48h17.4v-75.2h-16.8v47.9h0ZM217.9,219.4l11.2-48h17.2c0,.1-19.6,74.5-19.6,74.5v.6h-17l-11.6-47.5-11.4,47.5h-17.3l-19.5-75.2h17.5l10.9,47.5,11.9-47.5h16.1l11.7,48h0Z" />
	<path class="nsw-red"
		d="M176.5,50.9c2.6,12.6,3.9,25.5,4,38.3.2,11.8-1.4,23.5-4.7,34.8-2.7,8.4-7.9,15.8-14.9,21.2,13.5-.4,25.7-8.8,34.3-23.8,11.2-19.6,13.6-44.2,13.9-62.2.4-20.5-1.2-25.3-1.8-27.3s-1.4-2.8-3.2-2.8c-3.4,0-18,6.6-31.6,16.3,2.1,1.2,3.5,3.2,4,5.6h0Z" />
	<path class="nsw-red"
		d="M139.4,148c7.1-.7,13.9-3.5,19.5-8.1s9.6-10.7,11.7-17.5c3.1-10.8,4.6-21.9,4.4-33.1.2-11.9-.9-23.9-3.2-35.6-.3-1.3-.8-3.4-2.4-3.7-1.6-.4-3,1.3-4,2.2-1,.8-24.6,21.5-34.9,47.1-3.8,8.5-5.6,17.8-5.3,27.2,0,5.9.5,12.5,3.5,16.2,2.5,3.5,6.5,5.5,10.7,5.3h0ZM175.1,37.2c-2.7-12.2-5.2-20.6-5.2-20.6-.6-1.5-1.4-2.7-2.5-2.8-1.3-.2-2.5.2-3.4,1.1-1.6,1.2-13.4,10.5-17.3,13.7,3.8,7.7,7.1,15.7,9.7,23.8,6-5.4,12.2-10.5,18.8-15.2h-.1ZM243.3,67.8c.2-1.3,0-2.6-.6-3.7-.7-1.1-1.7-1.6-4.1-1.9-8.2,0-16.5.4-24.6,1.3-.1,8-.8,16-2,23.9,5.7,2.2,11.2,4.4,17.1,7.5,11.6-14.8,13.9-24.2,14.2-26.9v-.2h0ZM254.1,119c0-2-1-3.7-4.2-5.7-12.2-8.3-25.3-15.2-39.1-20.6-2,11-5.8,21.6-11.2,31.3-4.6,8.5-11.2,15.6-19.4,20.7,22.9-1.6,42.1-5.1,55.9-11.8,15.9-7.6,18-11.5,17.9-14h0ZM203.6,148.5c-4.4.3-8.8.9-13.1,1.8-4.5.8-9.1,1.1-13.7,1h-18.3c-7.9-.2-15.7.6-23.4,2.4-.4,0-.9.3-.8.7,0,.5.6.4,1.2.4s6.3-.4,9.1-.4c8,0,16,1.2,23.7,3.5,6.7,1.9,13.6,3,20.5,3.1,8.7,0,16.2-1.1,19.1-4.2,1.2-1.3,1.7-3,1.4-4.7-.6-2.5-2.2-3.5-5.6-3.5h0ZM60.9,121.4c8.6,14.9,20.7,23.4,34.3,23.8-7-5.4-12.2-12.7-14.9-21.2-3.3-11.3-4.9-23-4.7-34.8,0-12.9,1.4-25.7,4-38.3.4-2.4,1.8-4.4,4-5.6-13.8-10.2-28.2-16.2-31.6-16.3-1.8,0-2.6.7-3.2,2.8-.6,2-2.1,6.8-1.7,27.3.3,18,2.7,42.6,13.9,62.2h0Z" />
	<path class="nsw-red"
		d="M90.5,52.4c-1-.8-2.5-2.5-4-2.2s-2.1,2.4-2.4,3.7c-2.4,11.7-3.5,23.6-3.2,35.6,0,11.2,1.4,22.4,4.4,33.1,2.1,6.9,6.2,13,11.8,17.6,5.6,4.5,12.4,7.3,19.6,7.9,2.8,0,5.6-.8,7.9-2.4-.8-1-1.4-2.1-1.9-3.2-2-4.6-3-9.6-2.9-14.6,0-10,1.9-19.8,5.7-29-10.3-25.7-34.1-45.8-35-46.4h0ZM128,91c6.2-12.5,14.5-23.8,24.4-33.6-5.4-16.8-13-32.9-22.5-47.9-.6-.9-1.1-1.5-2-1.5s-1.3.6-1.9,1.5c-9.4,15-16.9,31.2-22.4,48.1,9.9,9.8,18.2,21.1,24.5,33.6v-.2h0ZM109.3,28.5c-3.7-3.2-15.6-12.5-17.3-13.7-.9-.9-2.2-1.3-3.4-1.1-1.2,0-2,1.3-2.5,2.8,0,0-2.6,8.4-5.2,20.6,6.5,4.6,12.7,9.6,18.6,14.9,2.7-8.1,6-16,9.8-23.6h0ZM27,94.7c6-3,11.4-5.2,17.1-7.5-1.2-7.8-1.9-15.7-2.1-23.7-8.2-.9-16.4-1.3-24.7-1.3-2.4.3-3.3.8-4.1,1.9-.6,1.2-.7,2.5-.6,3.7.3,2.5,2.6,12,14.3,26.7v.2h.1ZM56.3,124.1c-5.4-9.8-9.2-20.4-11.2-31.3-13.8,5.4-26.9,12.3-39.1,20.6-3.2,2.1-4.1,3.7-4.1,5.7s2,6.4,17.8,14c13.8,6.7,33.1,10.2,55.9,11.8-8.1-5.1-14.8-12.3-19.3-20.7h0ZM120.9,153.4c-7.6-1.8-15.5-2.6-23.3-2.4h-18.3c-4.6.1-9.2-.2-13.8-1-4.3-.9-8.7-1.5-13-1.8-3.4,0-5,1-5.6,3.2-.4,1.7.2,3.5,1.4,4.7,2.8,3.1,10.3,4.2,19.1,4.2,6.9-.1,13.8-1.1,20.5-3.1,7.7-2.2,15.6-3.2,23.6-3.2s8.5.4,9.1.4,1.2,0,1.2-.4-.3-.6-.7-.7h-.2Z" />
</svg>